<svg id="visual" viewBox="0 0 960 540" width="960" height="540" xmlns="http://www.w3.org/2000/svg" xmlns:xlink="http://www.w3.org/1999/xlink" version="1.1"><path d="M0 353L26.7 366.8C53.3 380.7 106.7 408.3 160 404.8C213.3 401.3 266.7 366.7 320 355C373.3 343.3 426.7 354.7 480 369C533.3 383.3 586.7 400.7 640 406C693.3 411.3 746.7 404.7 800 388.7C853.3 372.7 906.7 347.3 933.3 334.7L960 322L960 541L933.3 541C906.7 541 853.3 541 800 541C746.7 541 693.3 541 640 541C586.7 541 533.3 541 480 541C426.7 541 373.3 541 320 541C266.7 541 213.3 541 160 541C106.7 541 53.3 541 26.7 541L0 541Z" fill="#2D7DD2" stroke-linecap="round" stroke-linejoin="miter"></path></svg>